<?xml version="1.0" encoding="UTF-8" standalone="no"?>
<svg
   width="10mm"
   height="10mm"
   viewBox="-5 -5 10 10"
   version="1.1"
   xmlns="http://www.w3.org/2000/svg">
  <path
     style="fill:#000000;stroke:none;"
     d="M 0,-0.5 L 4.7,-0.5 L 4.7,4.8 L 3.2,4.8 L 3.2,3.4 C 2.5,4.5 1.5,5 0,5 C -3.4,5 -4.7,2.1 -4.7,0 C -4.7,-3 -2.5,-5 0.2,-5 C 2.5,-5 3.9,-3.5 4.3,-2.7 L 2.8,-1.8 C 2.3,-2.5 1.5,-3.3 0.2,-3.3 C -1.1,-3.3 -2.8,-2.3 -2.8,0 C -2.8,2 -1.4,3.3 0,3.3 C 2,3.3 2.6,2 2.9,1 L 0,1 Z" />
</svg>
